<svg><symbol id="home" viewBox="0 0 24 24"><g id="web-app" stroke="none" stroke-width="1" fill-rule="evenodd"><g id="home" fill-rule="nonzero"><path d="M12 5.561l-7 5.6V19h5v-4h4v4h5v-7.358a1 1 0 0 0-.375-.781L12 5.561zM12 3l7.874 6.3A3 3 0 0 1 21 11.641V19a2 2 0 0 1-2 2H5a2 2 0 0 1-2-2v-7.839A2 2 0 0 1 3.75 9.6L12 3z" id="Shape"/></g></g></symbol><symbol id="rocket" viewBox="0 0 24 24"><g id="web-app" stroke="none" stroke-width="1" fill-rule="evenodd"><g id="rocket"><path d="M14 22h-4c-.8 0-1.602-1.123-2.274-2.726L5 22l-1-1v-4l2.383-2.383C6.14 13.325 6 12.057 6 11c0-4 3-9 6-9s6 5 6 9c0 1.058-.14 2.325-.383 3.617L20 17v4l-1 1-2.726-2.726C15.602 20.877 14.801 22 14 22zm-2-2h-1.615a3.136 3.136 0 0 1-.179-.249c-.347-.532-.72-1.365-1.059-2.383C8.455 15.29 8 12.755 8 11c0-3.198 2.444-7 4-7s4 3.802 4 7c0 1.755-.455 4.291-1.147 6.368-.34 1.018-.712 1.85-1.06 2.383a3.136 3.136 0 0 1-.178.249H12zm0-8a2 2 0 1 0 0-4 2 2 0 0 0 0 4z" id="Shape"/></g></g></symbol><symbol id="smile" viewBox="0 0 24 24"><g id="people" stroke="none" stroke-width="1" fill-rule="evenodd"><g id="smile"><path d="M12 22C6.477 22 2 17.523 2 12S6.477 2 12 2s10 4.477 10 10-4.477 10-10 10zm4-9a4 4 0 1 1-8 0h8zm-4 7a8 8 0 1 0 0-16 8 8 0 0 0 0 16zm-2.5-9a1.5 1.5 0 1 0 0-3 1.5 1.5 0 0 0 0 3zm5 0a1.5 1.5 0 1 0 0-3 1.5 1.5 0 0 0 0 3z" id="Shape"/></g></g></symbol></svg>